HIERARCHY
ROOT Hips
{
    OFFSET   0.000000   0.000000   0.000000
    CHANNELS 6 Xposition Yposition Zposition Zrotation Xrotation Yrotation
    JOINT Chest
    {
        OFFSET   0.000000   8.007230   0.000000
        CHANNELS 3 Zrotation Xrotation Yrotation
        JOINT Chest2
        {
            OFFSET   0.000000  22.077100   0.000000
            CHANNELS 3 Zrotation Xrotation Yrotation
            JOINT Neck
            {
                OFFSET   0.000000  23.255100   0.000000
                CHANNELS 3 Zrotation Xrotation Yrotation
                JOINT Head
                {
                    OFFSET   0.000000  14.370100   1.956600
                    CHANNELS 3 Zrotation Xrotation Yrotation
                    End Site
                    {
                        OFFSET   0.000000  19.566000   0.000000
                    }
                }
            }
            JOINT LeftCollar
            {
                OFFSET   3.911900  19.017000  -0.467063
                CHANNELS 3 Zrotation Xrotation Yrotation
                JOINT LeftShoulder
                {
                    OFFSET  10.383700   0.000000   0.000000
                    CHANNELS 3 Zrotation Xrotation Yrotation
                    JOINT LeftElbow
                    {
                        OFFSET  26.662100   0.001193   0.000980
                        CHANNELS 3 Zrotation Xrotation Yrotation
                        JOINT LeftWrist
                        {
                            OFFSET  28.869000  -0.000059  -0.000082
                            CHANNELS 3 Zrotation Xrotation Yrotation
                            JOINT LeftFinger0
                            {
                                OFFSET   2.044650  -2.323450   3.252850
                                CHANNELS 3 Zrotation Xrotation Yrotation
                                JOINT LeftFinger01
                                {
                                    OFFSET   3.088130   0.000000   0.000000
                                    CHANNELS 3 Zrotation Xrotation Yrotation
                                    JOINT LeftFinger02
                                    {
                                        OFFSET   2.639460   0.000000   0.000000
                                        CHANNELS 3 Zrotation Xrotation Yrotation
                                        End Site
                                        {
                                            OFFSET   2.582190   0.000000   0.000000
                                        }
                                    }
                                }
                            }
                            JOINT LeftFinger1
                            {
                                OFFSET   8.364480   0.000000   3.252850
                                CHANNELS 3 Zrotation Xrotation Yrotation
                                JOINT LeftFinger11
                                {
                                    OFFSET   4.646930   0.000000   0.000000
                                    CHANNELS 3 Zrotation Xrotation Yrotation
                                    JOINT LeftFinger12
                                    {
                                        OFFSET   2.323470   0.000000   0.000000
                                        CHANNELS 3 Zrotation Xrotation Yrotation
                                        End Site
                                        {
                                            OFFSET   2.273050   0.000000   0.000000
                                        }
                                    }
                                }
                            }
                            JOINT LeftFinger2
                            {
                                OFFSET   8.364490   0.000016   1.078090
                                CHANNELS 3 Zrotation Xrotation Yrotation
                                JOINT LeftFinger21
                                {
                                    OFFSET   5.111610   0.000000   0.000000
                                    CHANNELS 3 Zrotation Xrotation Yrotation
                                    JOINT LeftFinger22
                                    {
                                        OFFSET   2.788150   0.000016   0.000000
                                        CHANNELS 3 Zrotation Xrotation Yrotation
                                        End Site
                                        {
                                            OFFSET   2.727660   0.000000   0.000000
                                        }
                                    }
                                }
                            }
                            JOINT LeftFinger3
                            {
                                OFFSET   7.899780   0.000015  -1.078090
                                CHANNELS 3 Zrotation Xrotation Yrotation
                                JOINT LeftFinger31
                                {
                                    OFFSET   4.646930   0.000000   0.000000
                                    CHANNELS 3 Zrotation Xrotation Yrotation
                                    JOINT LeftFinger32
                                    {
                                        OFFSET   2.323470   0.000000   0.000000
                                        CHANNELS 3 Zrotation Xrotation Yrotation
                                        End Site
                                        {
                                            OFFSET   2.273050   0.000000   0.000000
                                        }
                                    }
                                }
                            }
                            JOINT LeftFinger4
                            {
                                OFFSET   7.435090   0.000000  -3.252850
                                CHANNELS 3 Zrotation Xrotation Yrotation
                                JOINT LeftFinger41
                                {
                                    OFFSET   3.717550   0.000000   0.000000
                                    CHANNELS 3 Zrotation Xrotation Yrotation
                                    JOINT LeftFinger42
                                    {
                                        OFFSET   1.858770   0.000000   0.000000
                                        CHANNELS 3 Zrotation Xrotation Yrotation
                                        End Site
                                        {
                                            OFFSET   1.818440   0.000000   0.000000
                                        }
                                    }
                                }
                            }
                        }
                    }
                }
            }
            JOINT RightCollar
            {
                OFFSET  -3.911910  19.017000  -0.467062
                CHANNELS 3 Zrotation Xrotation Yrotation
                JOINT RightShoulder
                {
                    OFFSET -10.383700   0.000014   0.000000
                    CHANNELS 3 Zrotation Xrotation Yrotation
                    JOINT RightElbow
                    {
                        OFFSET -26.662100   0.001225   0.001091
                        CHANNELS 3 Zrotation Xrotation Yrotation
                        JOINT RightWrist
                        {
                            OFFSET -28.869000  -0.000020  -0.000085
                            CHANNELS 3 Zrotation Xrotation Yrotation
                            JOINT RightFinger0
                            {
                                OFFSET  -2.044650  -2.323490   3.252850
                                CHANNELS 3 Zrotation Xrotation Yrotation
                                JOINT RightFinger01
                                {
                                    OFFSET  -3.088130   0.000000   0.000000
                                    CHANNELS 3 Zrotation Xrotation Yrotation
                                    JOINT RightFinger02
                                    {
                                        OFFSET  -2.639460   0.000000   0.000000
                                        CHANNELS 3 Zrotation Xrotation Yrotation
                                        End Site
                                        {
                                            OFFSET  -2.582190   0.000000   0.000000
                                        }
                                    }
                                }
                            }
                            JOINT RightFinger1
                            {
                                OFFSET  -8.364480   0.000000   3.252850
                                CHANNELS 3 Zrotation Xrotation Yrotation
                                JOINT RightFinger11
                                {
                                    OFFSET  -4.646930   0.000000   0.000000
                                    CHANNELS 3 Zrotation Xrotation Yrotation
                                    JOINT RightFinger12
                                    {
                                        OFFSET  -2.323470   0.000000   0.000000
                                        CHANNELS 3 Zrotation Xrotation Yrotation
                                        End Site
                                        {
                                            OFFSET  -2.273050   0.000000   0.000000
                                        }
                                    }
                                }
                            }
                            JOINT RightFinger2
                            {
                                OFFSET  -8.364480   0.000000   1.078090
                                CHANNELS 3 Zrotation Xrotation Yrotation
                                JOINT RightFinger21
                                {
                                    OFFSET  -5.111620   0.000000   0.000000
                                    CHANNELS 3 Zrotation Xrotation Yrotation
                                    JOINT RightFinger22
                                    {
                                        OFFSET  -2.788160   0.000000   0.000000
                                        CHANNELS 3 Zrotation Xrotation Yrotation
                                        End Site
                                        {
                                            OFFSET  -2.727660   0.000000   0.000000
                                        }
                                    }
                                }
                            }
                            JOINT RightFinger3
                            {
                                OFFSET  -7.899780   0.000000  -1.078090
                                CHANNELS 3 Zrotation Xrotation Yrotation
                                JOINT RightFinger31
                                {
                                    OFFSET  -4.646930   0.000000   0.000000
                                    CHANNELS 3 Zrotation Xrotation Yrotation
                                    JOINT RightFinger32
                                    {
                                        OFFSET  -2.323470   0.000000   0.000000
                                        CHANNELS 3 Zrotation Xrotation Yrotation
                                        End Site
                                        {
                                            OFFSET  -2.273050   0.000000   0.000000
                                        }
                                    }
                                }
                            }
                            JOINT RightFinger4
                            {
                                OFFSET  -7.435090   0.000000  -3.252850
                                CHANNELS 3 Zrotation Xrotation Yrotation
                                JOINT RightFinger41
                                {
                                    OFFSET  -3.717550   0.000000   0.000000
                                    CHANNELS 3 Zrotation Xrotation Yrotation
                                    JOINT RightFinger42
                                    {
                                        OFFSET  -1.858760   0.000000   0.000000
                                        CHANNELS 3 Zrotation Xrotation Yrotation
                                        End Site
                                        {
                                            OFFSET  -1.818440   0.000000   0.000000
                                        }
                                    }
                                }
                            }
                        }
                    }
                }
            }
        }
    }
    JOINT LeftHip
    {
        OFFSET   9.783030   0.000000   0.000000
        CHANNELS 3 Zrotation Xrotation Yrotation
        JOINT LeftKnee
        {
            OFFSET   0.000063 -41.789100   0.000608
            CHANNELS 3 Zrotation Xrotation Yrotation
            JOINT LeftAnkle
            {
                OFFSET   0.000048 -41.133200  -0.000184
                CHANNELS 3 Zrotation Xrotation Yrotation
                JOINT LeftToe
                {
                    OFFSET   0.000000  -6.358960  14.674500
                    CHANNELS 3 Zrotation Xrotation Yrotation
                    End Site
                    {
                        OFFSET   0.000000   0.000000   3.913200
                    }
                }
            }
        }
    }
    JOINT RightHip
    {
        OFFSET  -9.783030   0.000000   0.000000
        CHANNELS 3 Zrotation Xrotation Yrotation
        JOINT RightKnee
        {
            OFFSET   0.000071 -41.789100   0.001239
            CHANNELS 3 Zrotation Xrotation Yrotation
            JOINT RightAnkle
            {
                OFFSET   0.000037 -41.133200  -0.000166
                CHANNELS 3 Zrotation Xrotation Yrotation
                JOINT RightToe
                {
                    OFFSET   0.000000  -6.358960  14.674500
                    CHANNELS 3 Zrotation Xrotation Yrotation
                    End Site
                    {
                        OFFSET   0.000000   0.000000   3.913200
                    }
                }
            }
        }
    }
}
MOTION
Frames: 4
Frame Time:   0.016667
 -1.618230  89.537700   1.290510  -2.252190  -6.767900  -0.362501   0.973809   2.962900   0.463115   1.927460   5.933190   0.877428   1.431670   1.359280  -0.034554   2.355570   2.751180  -2.240740  -3.393080  -0.806217   1.765030 -75.230300  16.588700   2.470890  -1.544660  -3.599330 -13.917000  16.256800 -16.725600   6.367190  41.013000  31.906100 -68.944000 -24.967100   0.005581   0.002706  -7.491110   0.006318   0.005707 -31.485500   6.180900  -9.970600 -26.191500  -0.000234   0.001295 -18.347200   0.001203  -0.008064 -28.627000  -1.731690   3.153310 -38.575000   0.003008   0.000639 -25.691000   0.005325   0.000716 -28.710600  -1.736560   3.150670 -40.637100  -0.002987  -0.007683 -27.064400   0.000810  -0.006556 -33.217900  -1.979100   3.005270 -49.905200   0.001983  -0.002290 -33.236800   0.005333  -0.004651   6.949950   1.067910   4.025190  71.798800   9.848740  -7.581340  -0.074818  -4.760180   9.208640 -12.336300 -11.062000   3.881580 -42.144000  36.661100  73.113700  27.903600   0.000000  -0.000566   8.951810   0.000926  -0.003432  30.822300   5.656470   9.381960  25.597600  -0.001089   0.000980  17.918300   0.006110   0.000823  28.614100   1.373650   2.515130  38.216700   0.004511  -0.000221  25.452300   0.003090  -0.000387  28.416300   0.607220   1.121620  35.439300  -0.005016   0.011242  23.602500  -0.003177   0.004432  37.872300  -0.477024  -0.607082  56.812200  -0.000250   0.005843  37.836900   0.005657   0.004202   3.078500   8.612970   1.713740   1.587540  -0.000432   5.241090  -3.453180  -2.725160  -0.935250   0.000000   0.000000   0.000000   4.099900   8.339030  -3.368380  -1.283610   2.007150  -7.739370  -0.063736  -4.650800  -0.556327  -0.000000   0.000000  -0.000000
 -1.617050  89.537700   1.310240  -2.252180  -6.766910  -0.363039   0.973986   2.962840   0.462670   1.927810   5.933020   0.876522   1.436760   1.346930  -0.034547   2.363860   2.726130  -2.246570  -3.401870  -0.815059   1.765230 -75.223200  16.595500   2.472310  -1.543890  -3.600160 -13.906700  16.246600 -16.714600   6.372600  41.012600  31.898800 -68.932300 -24.967000   0.005569   0.002687  -7.488160   0.006312   0.005857 -31.479200   6.178030  -9.968470 -26.191500  -0.000235   0.001299 -18.347200   0.001203  -0.008065 -28.627100  -1.728310   3.153290 -38.561300   0.003004   0.000639 -25.681800   0.005323   0.000713 -28.710700  -1.733180   3.150650 -40.622200  -0.002983  -0.007675 -27.054400   0.000809  -0.006556 -33.207800  -1.975100   3.005650 -49.889700   0.001983  -0.002290 -33.226500   0.005334  -0.004653   6.950060   1.061370   4.040420  71.794400   9.861850  -7.581850  -0.074754  -4.760060   9.209550 -12.323300 -11.057900   3.884820 -42.155100  36.670500  73.136700  27.894700  -0.000025  -0.000548   8.947350   0.000939  -0.003441  30.817300   5.661960   9.391980  25.594600  -0.001092   0.000986  17.916200   0.006113   0.000825  28.613500   1.381270   2.529110  38.212500   0.004515  -0.000221  25.449500   0.003091  -0.000387  28.416000   0.614233   1.134590  35.434700  -0.005014   0.011246  23.599500  -0.003175   0.004431  37.868700  -0.477024  -0.607147  56.806700  -0.000248   0.005835  37.833200   0.005661   0.004197   3.078620   8.622610   1.713930   1.587110   0.000766   5.241010  -3.448490  -2.737320  -0.935218   0.000000   0.000000  -0.000000   4.099170   8.354980  -3.357060  -1.278980   2.000920  -7.737090  -0.064610  -4.660150  -0.565575  -0.000000   0.000000   0.000000
 -1.614430  89.537800   1.342380  -2.252490  -6.763440  -0.366787   0.974195   2.962780   0.461625   1.928290   5.932860   0.874424   1.445830   1.325790  -0.034531   2.378670   2.683230  -2.259020  -3.414870  -0.828114   1.765420 -75.214000  16.602200   2.477220  -1.542690  -3.601100 -13.889400  16.232800 -16.701200   6.380370  41.012300  31.891400 -68.920600 -24.966200   0.005549   0.002653  -7.483130   0.006306   0.006064 -31.473000   6.175160  -9.966340 -26.191500  -0.000239   0.001308 -18.347200   0.001203  -0.008069 -28.627300  -1.723020   3.153210 -38.547600   0.002996   0.000640 -25.672700   0.005318   0.000705 -28.711000  -1.727870   3.150560 -40.600900  -0.002972  -0.007656 -27.040200   0.000807  -0.006556 -33.192700  -1.968740   3.006020 -49.866600   0.001980  -0.002294 -33.211100   0.005336  -0.004660   6.950310   1.050470   4.064970  71.784700   9.880020  -7.582480  -0.074341  -4.759220   9.215920 -12.303200 -11.049700   3.891550 -42.166200  36.679800  73.159600  27.876700  -0.000061  -0.000513   8.938360   0.000953  -0.003451  30.806300   5.672560   9.412290  25.587600  -0.001096   0.000998  17.911300   0.006119   0.000831  28.612500   1.393510   2.551630  38.201000   0.004523  -0.000220  25.441900   0.003091  -0.000386  28.415500   0.626306   1.156920  35.425800  -0.005010   0.011254  23.593500  -0.003170   0.004427  37.862700  -0.477023  -0.607267  56.797800  -0.000244   0.005816  37.827300   0.005670   0.004183   3.078570   8.638000   1.714160   1.586390   0.001964   5.240940  -3.441330  -2.757830  -0.934940  -0.000000   0.000000   0.000000   4.098430   8.378300  -3.343140  -1.269680   1.993210  -7.728380  -0.066023  -4.676830  -0.579723  -0.000000   0.000000  -0.000000
 -1.610250  89.537900   1.366510  -2.253390  -6.756590  -0.375710   0.973980   2.962860   0.460859   1.927920   5.933020   0.872907   1.453810   1.307830  -0.034503   2.391690   2.646750  -2.275620  -3.421850  -0.836124   1.763590 -75.213100  16.593900   2.487200  -1.540670  -3.596560 -13.874900  16.229300 -16.698600   6.383800  41.020300  31.895600 -68.927300 -24.957200   0.005540   0.002616  -7.477760   0.006319   0.006137 -31.472700   6.178430  -9.971120 -26.191800  -0.000243   0.001316 -18.347200   0.001197  -0.012730 -28.627700  -1.718700   3.147010 -38.547800   0.002988   0.000642 -25.672800   0.005308   0.000693 -28.711500  -1.723520   3.144360 -40.591400  -0.002953  -0.007631 -27.033900   0.000803  -0.006552 -33.184600  -1.963330   3.000390 -49.854200   0.001972  -0.002304 -33.202800   0.005335  -0.004670   6.950610   1.042130   4.082130  71.773200   9.886340  -7.582130  -0.079378  -4.742140   9.232490 -12.291400 -11.037200   3.899200 -42.175600  36.674200  73.158700  27.849800  -0.000078  -0.000476   8.924900   0.000948  -0.003442  30.789700   5.687520   9.443440  25.576600  -0.001098   0.001011  17.903600   0.006123   0.000844  28.611600   1.404420   2.571790  38.180500   0.004536  -0.000219  25.428200   0.003090  -0.000384  28.415000   0.639045   1.180480  35.415200  -0.005007   0.011267  23.586500  -0.003159   0.004420  37.858000  -0.475203  -0.607423  56.790600  -0.000237   0.005786  37.822500   0.005682   0.004162   3.076490   8.651380   1.714200   1.585640   0.001045   5.242260  -3.436670  -2.772920  -0.930534  -0.000000   0.000000   0.000000   4.093460   8.389540  -3.340120  -1.257850   1.992300  -7.709990  -0.067222  -4.693460  -0.590073  -0.000000   0.000000   0.000000
